<?xml version="1.0" encoding="iso-8859-1"?>
<!-- Uploaded to: SVG Repo, www.svgrepo.com, Generator: SVG Repo Mixer Tools -->
<!DOCTYPE svg PUBLIC "-//W3C//DTD SVG 1.1//EN" "http://www.w3.org/Graphics/SVG/1.1/DTD/svg11.dtd">
<svg fill="#000000" height="800px" width="800px" version="1.1" id="Capa_1" xmlns="http://www.w3.org/2000/svg" xmlns:xlink="http://www.w3.org/1999/xlink" 
	 viewBox="0 0 383.631 383.631" xml:space="preserve">
<path d="M47.331,210.289c-1.408,1.375-3.273,2.296-5.374,2.508c-0.116,0.012-0.232,0.021-0.349,0.029
	c-0.006,0-0.013,0.001-0.02,0.001c-0.185,0.011-0.367,0.017-0.549,0.017c-2.109,0-4.073-0.737-5.624-1.982
	c-0.001,0-0.001,0-0.001-0.001c-0.007-0.005-0.013-0.01-0.019-0.015c-0.002-0.001-0.004-0.003-0.006-0.004
	c-0.004-0.003-0.009-0.007-0.013-0.011c-0.003-0.002-0.007-0.005-0.01-0.008s-0.006-0.005-0.009-0.007
	c-0.004-0.003-0.009-0.007-0.013-0.01c-0.002-0.001-0.004-0.003-0.006-0.005c-0.005-0.004-0.011-0.008-0.016-0.013
	c-0.046-0.038-0.092-0.077-0.138-0.116c-0.006-0.005-0.012-0.01-0.018-0.015c-0.001-0.001-0.002-0.002-0.003-0.002
	c-0.005-0.004-0.01-0.009-0.016-0.013c-0.001-0.002-0.004-0.004-0.006-0.005c-0.004-0.004-0.008-0.007-0.013-0.011
	c-0.003-0.002-0.006-0.005-0.009-0.007c-0.003-0.003-0.006-0.006-0.01-0.009c-0.004-0.004-0.009-0.008-0.014-0.012
	c-0.001-0.002-0.003-0.003-0.005-0.005c-0.207-0.183-0.405-0.375-0.595-0.575L2.505,176.658c-3.44-3.587-3.322-9.285,0.266-12.725
	c3.587-3.44,9.284-3.322,12.725,0.265l16.426,17.125c3.887-58.736,40.101-111.535,95.123-135.771
	c39.08-17.212,82.524-18.177,122.331-2.714c39.805,15.462,71.206,45.501,88.417,84.582c2.004,4.549-0.06,9.861-4.608,11.864
	c-4.55,2.003-9.862-0.061-11.864-4.609c-15.273-34.68-43.139-61.336-78.462-75.058c-35.322-13.721-73.875-12.867-108.558,2.409
	C85.342,83.591,53.163,130.64,49.854,182.927l18.381-17.632c3.589-3.44,9.285-3.322,12.726,0.265s3.322,9.284-0.265,12.725
	L47.331,210.289z M381.087,207.409l-32.648-33.615c-1.759-1.838-4.291-2.921-7-2.769c-0.005,0-0.01,0-0.017,0.001
	c-0.143,0.008-0.285,0.02-0.428,0.034c-2.123,0.221-4.005,1.169-5.415,2.575l-32.732,32.273c-3.54,3.49-3.58,9.188-0.091,12.728
	c3.491,3.54,9.189,3.58,12.728,0.09l17.594-17.346c-3.513,52.052-35.643,98.837-84.405,120.314
	c-18.545,8.168-37.91,12.033-56.982,12.032c-54.556-0.002-106.675-31.636-130.038-84.682c-2.003-4.548-7.314-6.612-11.864-4.609
	c-4.549,2.003-6.612,7.315-4.608,11.864c26.329,59.781,85.053,95.43,146.536,95.426c21.487-0.001,43.319-4.357,64.213-13.559
	c55.03-24.239,91.261-77.082,95.127-135.845l17.12,17.627c3.463,3.565,9.16,3.649,12.727,0.186
	C384.467,216.673,384.55,210.975,381.087,207.409z"/>
</svg>